<svg id="Calque_1" data-name="Calque 1" xmlns="http://www.w3.org/2000/svg" xmlns:xlink="http://www.w3.org/1999/xlink" viewBox="0 0 223.62 223.62"><defs><style>.cls-1{fill:url(#Dégradé_sans_nom_59);}.cls-2{fill:#fff;}</style><linearGradient id="Dégradé_sans_nom_59" x1="111.81" y1="1.2" x2="111.81" y2="224.82" gradientUnits="userSpaceOnUse"><stop offset="0" stop-color="#d0559a" stop-opacity="0.8"/><stop offset="0.51" stop-color="#dc4a6e" stop-opacity="0.8"/><stop offset="1" stop-color="#e83f3f" stop-opacity="0.8"/></linearGradient></defs><title>logo_Bike</title><circle class="cls-1" cx="111.81" cy="111.81" r="111.81"/><path class="cls-2" d="M82,121.35c0,2.8,2.09,3.93,4.59,3.93h2.74c5.3,0,12.63-6.61,14.78-14.36h.48l-2.26,14.84H67.76v-.42c2.5,0,5.3-1.13,5.3-3.93V90.61c0-2.8-2.8-4.05-5.3-4.05V86.2H87.3v.36c-2.5,0-5.3,1.25-5.3,4.05Z" transform="translate(-29.92 -29.92)"/><path class="cls-2" d="M114.47,111.7c.06,5.07,3,9.42,9.12,9.42a7.78,7.78,0,0,0,5.9-2.8c.36-.54.42-.89.71-.89s.36.24.36.42c-.89,3.93-5.06,8.7-10.31,8.7-7.27,0-13.11-5.24-13.11-12.57a13.16,13.16,0,0,1,12.57-12.87,11,11,0,0,1,10.61,10.61Zm9.24-.54c0-3.75-.48-9.65-4-9.65-4.65,0-5.24,5.3-5.24,9.65Z" transform="translate(-29.92 -29.92)"/><path class="cls-2" d="M147.54,124.33a4,4,0,0,0,3.28-1.79h.3a7.92,7.92,0,0,1-7,4c-4.23,0-7.87-2.32-7.87-7.51V104.25H134v-.36l9.36-9.41h.36V102h6.73l-.83,2.26h-5.9v15.08C143.67,121.53,145.1,124.33,147.54,124.33Z" transform="translate(-29.92 -29.92)"/><path class="cls-2" d="M163.75,92.45c0,5.54-5.07,9.42-9.12,10.85v-.48c1.73-.6,3.75-2,3.75-4.17,0-3.28-4.29-3.1-4.29-7.21a4.68,4.68,0,0,1,4.47-4.89C161.6,86.55,163.75,89.41,163.75,92.45Z" transform="translate(-29.92 -29.92)"/><path class="cls-2" d="M175.6,101.93a2.82,2.82,0,0,0-2.56,3c0,2.5,4.05,3.69,7.69,5.54,3,1.55,5.72,3.58,5.72,7.27a8.67,8.67,0,0,1-8.64,8.76c-3.52,0-7-1-8.64-2.32v-8.7h.42c1.13,3,4.47,10.55,8.76,10.55a3,3,0,0,0,2.92-3.1c0-3.87-3.58-5.24-6.91-6.91-3-1.49-5.84-3.16-5.84-7.09,0-4.53,4.11-7.87,8.64-7.87a14.37,14.37,0,0,1,6.5,1.67l.89,7.63-.36.06C182.81,107.53,179.18,101.93,175.6,101.93Z" transform="translate(-29.92 -29.92)"/><path class="cls-2" d="M96.18,197.26l-7.92-15.31c-.89-1.73-2.26-3.4-4.95-3.46h-.83v14.42c0,2.8,2.8,3.93,5.3,3.93v.42H68.23v-.42c2.5,0,5.3-1.13,5.3-3.93V162.11c0-2.8-2.8-4.05-5.3-4.05v-.36H82.59c1.61,0,3.93-.06,6.44-.06,6.14,0,11.74,4.65,11.74,10.55,0,5.18-3.1,9-9.24,10.07a14.52,14.52,0,0,1,7.63,5.84l4.89,8.82c1.43,2.38,3.16,3.93,5.66,3.93v.42ZM82.48,177.9h2.44c5.78-.06,7.57-3.87,7.57-9.77,0-4.29-2.14-10.13-6.2-10.13a19,19,0,0,0-3.81.3Z" transform="translate(-29.92 -29.92)"/><path class="cls-2" d="M126.09,192.85c0,2.8,2.8,3.93,5.3,3.93v.48H111.85v-.48c2.5,0,5.3-1.13,5.3-3.93V162.17c0-2.8-2.8-4.05-5.3-4.05v-.42h19.55v.42c-2.5,0-5.3,1.25-5.3,4.05Z" transform="translate(-29.92 -29.92)"/><path class="cls-2" d="M134.49,197.26v-.42c2.5,0,5.3-1.13,5.3-3.93V162.11c0-2.8-2.8-4.05-5.3-4.05v-.36h14.36s4.77-.3,7.81-.3c9.18,0,18.65,8.22,18.65,20.14s-8,19.72-19.72,19.72Zm18.35-39.39a20.78,20.78,0,0,0-4.11.42V193c.06,2.8,1.19,3.75,2.74,3.81H154c6.2,0,11.44-3.75,11.44-19.37C165.47,162.11,158.44,157.88,152.84,157.88Z" transform="translate(-29.92 -29.92)"/><path class="cls-2" d="M204.14,167.89h.42v20h-.42c0-4.89-4.71-10.25-9.59-10.25h-1.79v15.19c0,2.8,2.09,3.93,4.59,3.93h2.74c5.3,0,13-5.66,15.13-13.41h.48l-2.8,13.88H178.52v-.42c2.5,0,5.3-1.13,5.3-3.93V162.11c0-2.8-2.8-4.05-5.3-4.05v-.36h30.27l4.29,10.85h-.36c-3.52-5.24-9.06-10.31-16.33-10.31h-3.64v18.83h1.79C199.43,177.06,204.14,172.77,204.14,167.89Z" transform="translate(-29.92 -29.92)"/></svg>